<svg width="66" height="10" viewBox="0 0 66 10" fill="none" xmlns="http://www.w3.org/2000/svg">
<path d="M5.78402 0.779998H7.05602L5.86802 9H4.47602C4.03602 6.224 3.79202 4.648 3.74402 4.272C3.70402 3.888 3.66002 3.456 3.61202 2.976C3.54802 3.864 3.45602 4.684 3.33602 5.436L2.76002 9H1.29602L0.132019 0.779998H1.41602L1.95602 4.296L2.19602 6.54C2.32402 5.436 2.58402 3.516 2.97602 0.779998H4.24802L4.74002 4.296L5.00402 6.48C5.06802 5.664 5.14802 4.936 5.24402 4.296L5.78402 0.779998Z" fill="#0085FF"/>
<path d="M7.71161 7.092V3.804C7.71161 3.212 7.88761 2.748 8.23961 2.412C8.59961 2.068 9.13961 1.896 9.85961 1.896C10.5796 1.896 11.1076 2.068 11.4436 2.412C11.7876 2.748 11.9596 3.212 11.9596 3.804V6.108H9.11561V6.984C9.11561 7.272 9.19961 7.48 9.36761 7.608C9.53561 7.736 9.85561 7.8 10.3276 7.8C10.7996 7.8 11.2836 7.724 11.7796 7.572V8.856C11.2836 9 10.7316 9.072 10.1236 9.072C8.51561 9.072 7.71161 8.412 7.71161 7.092ZM9.11561 4.98H10.6156V3.816C10.6156 3.344 10.3636 3.108 9.85961 3.108C9.36361 3.108 9.11561 3.344 9.11561 3.816V4.98Z" fill="#0085FF"/>
<path d="M15.8787 3.828C15.8787 3.484 15.6947 3.312 15.3267 3.312C15.0387 3.312 14.7587 3.38 14.4867 3.516V7.668H15.1587C15.6387 7.668 15.8787 7.456 15.8787 7.032V3.828ZM13.0347 0.155998H14.4747V2.208C14.8907 2.056 15.3307 1.98 15.7947 1.98C16.2667 1.98 16.6427 2.112 16.9227 2.376C17.2027 2.632 17.3427 3.012 17.3427 3.516V7.236C17.3427 7.82 17.1787 8.26 16.8507 8.556C16.5227 8.852 16.0827 9 15.5307 9H13.0347V0.155998Z" fill="#0085FF"/>
<path d="M23.0671 2.652V3.396C23.0671 4.156 22.7871 4.64 22.2271 4.848C22.8351 5.032 23.1391 5.524 23.1391 6.324V7.128C23.1391 8.376 22.4751 9 21.1471 9H18.5191V0.779998H21.0751C22.4031 0.779998 23.0671 1.404 23.0671 2.652ZM20.8591 2.004H19.9591V4.224H20.8591C21.3871 4.224 21.6511 3.976 21.6511 3.48V2.736C21.6511 2.248 21.3871 2.004 20.8591 2.004ZM21.7231 7.044V6.24C21.7231 5.744 21.4591 5.496 20.9311 5.496H19.9591V7.776H20.9311C21.4591 7.776 21.7231 7.532 21.7231 7.044Z" fill="#0085FF"/>
<path d="M27.0799 3.84C27.0799 3.368 26.8359 3.132 26.3479 3.132C25.8679 3.132 25.6279 3.368 25.6279 3.84V7.176C25.6279 7.648 25.8679 7.884 26.3479 7.884C26.8359 7.884 27.0799 7.648 27.0799 7.176V3.84ZM24.1999 3.804C24.1999 3.212 24.3759 2.748 24.7279 2.412C25.0879 2.068 25.6279 1.896 26.3479 1.896C27.0759 1.896 27.6159 2.068 27.9679 2.412C28.3279 2.748 28.5079 3.212 28.5079 3.804V7.212C28.5079 7.804 28.3279 8.272 27.9679 8.616C27.6159 8.952 27.0759 9.12 26.3479 9.12C25.6279 9.12 25.0879 8.952 24.7279 8.616C24.3759 8.272 24.1999 7.804 24.1999 7.212V3.804Z" fill="#0085FF"/>
<path d="M32.4471 3.84C32.4471 3.368 32.2031 3.132 31.7151 3.132C31.2351 3.132 30.9951 3.368 30.9951 3.84V7.176C30.9951 7.648 31.2351 7.884 31.7151 7.884C32.2031 7.884 32.4471 7.648 32.4471 7.176V3.84ZM29.5671 3.804C29.5671 3.212 29.7431 2.748 30.0951 2.412C30.4551 2.068 30.9951 1.896 31.7151 1.896C32.4431 1.896 32.9831 2.068 33.3351 2.412C33.6951 2.748 33.8751 3.212 33.8751 3.804V7.212C33.8751 7.804 33.6951 8.272 33.3351 8.616C32.9831 8.952 32.4431 9.12 31.7151 9.12C30.9951 9.12 30.4551 8.952 30.0951 8.616C29.7431 8.272 29.5671 7.804 29.5671 7.212V3.804Z" fill="#0085FF"/>
<path d="M35.0543 0.155998H36.4583V9H35.0543V0.155998ZM37.7543 2.016H39.2063L37.9943 5.34L39.3623 9H37.8263L36.5663 5.28L37.7543 2.016Z" fill="#0085FF"/>
<path d="M44.0048 2.424C44.5488 2.128 45.0768 1.98 45.5888 1.98C46.1088 1.98 46.5048 2.112 46.7768 2.376C47.0568 2.632 47.1968 3.012 47.1968 3.516V9H45.7328V3.828C45.7328 3.484 45.5568 3.312 45.2048 3.312C44.9168 3.312 44.6328 3.396 44.3528 3.564C44.3768 3.636 44.3888 3.724 44.3888 3.828V9H42.9128V3.828C42.9128 3.484 42.7368 3.312 42.3848 3.312C42.1128 3.312 41.8408 3.388 41.5688 3.54V9H40.1168V2.016H41.4848V2.328C41.9488 2.096 42.4128 1.98 42.8768 1.98C43.3488 1.98 43.7248 2.128 44.0048 2.424Z" fill="#0085FF"/>
<path d="M49.4931 6.984V7.332C49.4931 7.74 49.7051 7.944 50.1291 7.944C50.4571 7.944 50.7451 7.856 50.9931 7.68V5.928L50.1411 6.168C49.8771 6.24 49.7011 6.332 49.6131 6.444C49.5331 6.556 49.4931 6.736 49.4931 6.984ZM48.4251 2.184C48.8811 2.032 49.4851 1.956 50.2371 1.956C50.9891 1.956 51.5371 2.124 51.8811 2.46C52.2251 2.788 52.3971 3.284 52.3971 3.948V9H51.0291V8.496C50.7171 8.856 50.2771 9.036 49.7091 9.036C49.1491 9.036 48.7371 8.896 48.4731 8.616C48.2091 8.336 48.0771 7.908 48.0771 7.332V6.924C48.0771 6.436 48.1931 6.052 48.4251 5.772C48.6571 5.492 49.0331 5.28 49.5531 5.136L51.0051 4.74V3.936C50.9971 3.688 50.9251 3.508 50.7891 3.396C50.6531 3.284 50.3411 3.228 49.8531 3.228C49.3651 3.228 48.8891 3.312 48.4251 3.48V2.184Z" fill="#0085FF"/>
<path d="M56.3645 1.98H56.6045V3.324H56.2805C55.8645 3.324 55.4645 3.444 55.0805 3.684V9H53.6285V2.016H54.9965V2.508C55.2285 2.356 55.3885 2.256 55.4765 2.208C55.7405 2.056 56.0365 1.98 56.3645 1.98Z" fill="#0085FF"/>
<path d="M57.3082 0.155998H58.7122V9H57.3082V0.155998ZM60.0082 2.016H61.4602L60.2482 5.34L61.6162 9H60.0802L58.8202 5.28L60.0082 2.016Z" fill="#0085FF"/>
<path d="M62.0107 3.792C62.0107 3.176 62.1907 2.716 62.5507 2.412C62.9107 2.108 63.4987 1.956 64.3147 1.956C64.8427 1.956 65.3147 2.02 65.7307 2.148V3.432C65.3627 3.304 64.9507 3.24 64.4947 3.24C64.0467 3.24 63.7547 3.292 63.6187 3.396C63.4907 3.492 63.4267 3.652 63.4267 3.876V4.044C63.4267 4.204 63.4627 4.332 63.5347 4.428C63.6147 4.516 63.7667 4.628 63.9907 4.764L64.9867 5.352C65.6507 5.744 65.9827 6.252 65.9827 6.876V7.188C65.9827 8.436 65.1667 9.06 63.5347 9.06C62.9587 9.06 62.4547 9.004 62.0227 8.892V7.584C62.4147 7.704 62.8467 7.764 63.3187 7.764C63.7907 7.764 64.1107 7.712 64.2787 7.608C64.4547 7.504 64.5427 7.348 64.5427 7.14V6.972C64.5427 6.812 64.4947 6.684 64.3987 6.588C64.3107 6.492 64.1187 6.36 63.8227 6.192L62.9227 5.664C62.3147 5.312 62.0107 4.804 62.0107 4.14V3.792Z" fill="#0085FF"/>
</svg>
