<svg width="236" height="50" viewBox="0 0 236 50" fill="none" xmlns="http://www.w3.org/2000/svg">
    <path d="M0 50V0H26V50L13 42.5926L0 50Z" fill="#0085FF"/>
    <path d="M53.5274 7.34H57.3819L53.7819 32H49.5637C48.2304 23.672 47.491 18.944 47.3455 17.816C47.2243 16.664 47.091 15.368 46.9455 13.928C46.7516 16.592 46.4728 19.052 46.1092 21.308L44.3637 32H39.9274L36.4001 7.34H40.291L41.9274 17.888L42.6546 24.62C43.0425 21.308 43.8304 15.548 45.0183 7.34H48.8728L50.3637 17.888L51.1637 24.44C51.3577 21.992 51.6001 19.808 51.891 17.888L53.5274 7.34Z" fill="#0085FF"/>
    <path d="M59.3685 26.276V16.412C59.3685 14.636 59.9019 13.244 60.9685 12.236C62.0594 11.204 63.6958 10.688 65.8776 10.688C68.0594 10.688 69.6594 11.204 70.6776 12.236C71.72 13.244 72.2412 14.636 72.2412 16.412V23.324H63.6231V25.952C63.6231 26.816 63.8776 27.44 64.3867 27.824C64.8958 28.208 65.8655 28.4 67.2958 28.4C68.7261 28.4 70.1927 28.172 71.6958 27.716V31.568C70.1927 32 68.52 32.216 66.6776 32.216C61.8049 32.216 59.3685 30.236 59.3685 26.276ZM63.6231 19.94H68.1685V16.448C68.1685 15.032 67.4049 14.324 65.8776 14.324C64.3746 14.324 63.6231 15.032 63.6231 16.448V19.94Z" fill="#0085FF"/>
    <path d="M84.1173 16.484C84.1173 15.452 83.5597 14.936 82.4445 14.936C81.5718 14.936 80.7233 15.14 79.8991 15.548V28.004H81.9354C83.39 28.004 84.1173 27.368 84.1173 26.096V16.484ZM75.4991 5.46799H79.8627V11.624C81.1233 11.168 82.4567 10.94 83.8627 10.94C85.293 10.94 86.4324 11.336 87.2809 12.128C88.1294 12.896 88.5536 14.036 88.5536 15.548V26.708C88.5536 28.46 88.0567 29.78 87.0627 30.668C86.0688 31.556 84.7354 32 83.0627 32H75.4991V5.46799Z" fill="#0085FF"/>
    <path d="M105.9 12.956V15.188C105.9 17.468 105.052 18.92 103.355 19.544C105.197 20.096 106.118 21.572 106.118 23.972V26.384C106.118 30.128 104.106 32 100.082 32H92.1185V7.34H99.8639C103.888 7.34 105.9 9.212 105.9 12.956ZM99.2094 11.012H96.4821V17.672H99.2094C100.809 17.672 101.609 16.928 101.609 15.44V13.208C101.609 11.744 100.809 11.012 99.2094 11.012ZM101.828 26.132V23.72C101.828 22.232 101.028 21.488 99.4276 21.488H96.4821V28.328H99.4276C101.028 28.328 101.828 27.596 101.828 26.132Z" fill="#0085FF"/>
    <path d="M118.06 16.52C118.06 15.104 117.321 14.396 115.842 14.396C114.388 14.396 113.66 15.104 113.66 16.52V26.528C113.66 27.944 114.388 28.652 115.842 28.652C117.321 28.652 118.06 27.944 118.06 26.528V16.52ZM109.333 16.412C109.333 14.636 109.866 13.244 110.933 12.236C112.024 11.204 113.66 10.688 115.842 10.688C118.048 10.688 119.685 11.204 120.751 12.236C121.842 13.244 122.388 14.636 122.388 16.412V26.636C122.388 28.412 121.842 29.816 120.751 30.848C119.685 31.856 118.048 32.36 115.842 32.36C113.66 32.36 112.024 31.856 110.933 30.848C109.866 29.816 109.333 28.412 109.333 26.636V16.412Z" fill="#0085FF"/>
    <path d="M134.325 16.52C134.325 15.104 133.585 14.396 132.106 14.396C130.652 14.396 129.925 15.104 129.925 16.52V26.528C129.925 27.944 130.652 28.652 132.106 28.652C133.585 28.652 134.325 27.944 134.325 26.528V16.52ZM125.597 16.412C125.597 14.636 126.131 13.244 127.197 12.236C128.288 11.204 129.925 10.688 132.106 10.688C134.312 10.688 135.949 11.204 137.015 12.236C138.106 13.244 138.652 14.636 138.652 16.412V26.636C138.652 28.412 138.106 29.816 137.015 30.848C135.949 31.856 134.312 32.36 132.106 32.36C129.925 32.36 128.288 31.856 127.197 30.848C126.131 29.816 125.597 28.412 125.597 26.636V16.412Z" fill="#0085FF"/>
    <path d="M142.225 5.46799H146.48V32H142.225V5.46799ZM150.407 11.048H154.807L151.134 21.02L155.28 32H150.625L146.807 20.84L150.407 11.048Z" fill="#0085FF"/>
    <path d="M169.348 12.272C170.996 11.384 172.596 10.94 174.148 10.94C175.724 10.94 176.924 11.336 177.748 12.128C178.596 12.896 179.021 14.036 179.021 15.548V32H174.584V16.484C174.584 15.452 174.051 14.936 172.984 14.936C172.111 14.936 171.251 15.188 170.402 15.692C170.475 15.908 170.512 16.172 170.512 16.484V32H166.039V16.484C166.039 15.452 165.505 14.936 164.439 14.936C163.615 14.936 162.79 15.164 161.966 15.62V32H157.566V11.048H161.711V11.984C163.118 11.288 164.524 10.94 165.93 10.94C167.36 10.94 168.499 11.384 169.348 12.272Z" fill="#0085FF"/>
    <path d="M185.979 25.952V26.996C185.979 28.22 186.622 28.832 187.906 28.832C188.9 28.832 189.773 28.568 190.525 28.04V22.784L187.943 23.504C187.143 23.72 186.609 23.996 186.343 24.332C186.1 24.668 185.979 25.208 185.979 25.952ZM182.743 11.552C184.125 11.096 185.955 10.868 188.234 10.868C190.512 10.868 192.173 11.372 193.215 12.38C194.258 13.364 194.779 14.852 194.779 16.844V32H190.634V30.488C189.688 31.568 188.355 32.108 186.634 32.108C184.937 32.108 183.688 31.688 182.888 30.848C182.088 30.008 181.688 28.724 181.688 26.996V25.772C181.688 24.308 182.04 23.156 182.743 22.316C183.446 21.476 184.585 20.84 186.161 20.408L190.561 19.22V16.808C190.537 16.064 190.318 15.524 189.906 15.188C189.494 14.852 188.549 14.684 187.07 14.684C185.591 14.684 184.149 14.936 182.743 15.44V11.552Z" fill="#0085FF"/>
    <path d="M206.802 10.94H207.529V14.972H206.547C205.286 14.972 204.074 15.332 202.911 16.052V32H198.511V11.048H202.656V12.524C203.359 12.068 203.844 11.768 204.111 11.624C204.911 11.168 205.808 10.94 206.802 10.94Z" fill="#0085FF"/>
    <path d="M209.661 5.46799H213.916V32H209.661V5.46799ZM217.843 11.048H222.243L218.57 21.02L222.716 32H218.061L214.243 20.84L217.843 11.048Z" fill="#0085FF"/>
    <path d="M223.911 16.376C223.911 14.528 224.457 13.148 225.548 12.236C226.638 11.324 228.42 10.868 230.893 10.868C232.493 10.868 233.923 11.06 235.184 11.444V15.296C234.069 14.912 232.82 14.72 231.438 14.72C230.081 14.72 229.196 14.876 228.784 15.188C228.396 15.476 228.202 15.956 228.202 16.628V17.132C228.202 17.612 228.311 17.996 228.529 18.284C228.772 18.548 229.232 18.884 229.911 19.292L232.929 21.056C234.942 22.232 235.948 23.756 235.948 25.628V26.564C235.948 30.308 233.475 32.18 228.529 32.18C226.784 32.18 225.257 32.012 223.948 31.676V27.752C225.135 28.112 226.445 28.292 227.875 28.292C229.305 28.292 230.275 28.136 230.784 27.824C231.317 27.512 231.584 27.044 231.584 26.42V25.916C231.584 25.436 231.438 25.052 231.148 24.764C230.881 24.476 230.299 24.08 229.402 23.576L226.675 21.992C224.832 20.936 223.911 19.412 223.911 17.42V16.376Z" fill="#0085FF"/>
    <path d="M21.3334 18.1666C21.3334 18.3333 21.2467 18.5 21.0734 18.6667L17.4375 22.1667L18.2984 27.25C18.305 27.25 18.3084 27.3334 18.3084 27.4167C18.3084 27.5834 18.2717 27.6666 18.1984 27.7499C18.1317 27.8333 18.0317 27.9167 17.8975 27.9167C17.7709 27.9167 17.6375 27.9167 17.4975 27.8334L13 25.4167L8.50285 27.8334C8.35594 27.9167 8.22235 27.9167 8.10219 27.9167C7.96194 27.9167 7.8551 27.8333 7.78169 27.7499C7.71485 27.6666 7.68152 27.5834 7.68152 27.4167C7.68152 27.4167 7.68819 27.3333 7.70152 27.25L8.56294 22.1667L4.9171 18.6667C4.75019 18.5 4.66669 18.3333 4.66669 18.1666C4.66669 17.9166 4.85369 17.7499 5.2276 17.7499L10.2556 17L12.5092 12.4167C12.6359 12.1667 12.8 12 13 12C13.2 12 13.3642 12.1667 13.4909 12.4167L15.7442 17L20.7725 17.7499C21.1467 17.7499 21.3334 17.9166 21.3334 18.1666Z" fill="#E67E22"/>
    <path d="M21.3334 17.3333C21.3334 17.4999 21.2467 17.6667 21.0734 17.8334L17.4375 21.3333L18.2984 26.4166C18.305 26.4166 18.3084 26.5 18.3084 26.5834C18.3084 26.75 18.2717 26.8333 18.1984 26.9166C18.1317 26.9999 18.0317 27.0833 17.8975 27.0833C17.7709 27.0833 17.6375 27.0834 17.4975 27L13 24.5833L8.50285 27C8.35594 27.0834 8.22235 27.0833 8.10219 27.0833C7.96194 27.0833 7.8551 26.9999 7.78169 26.9166C7.71485 26.8333 7.68152 26.75 7.68152 26.5834C7.68152 26.5834 7.68819 26.5 7.70152 26.4166L8.56294 21.3333L4.9171 17.8334C4.75019 17.6667 4.66669 17.4999 4.66669 17.3333C4.66669 17.0833 4.85369 16.9166 5.2276 16.9166L10.2556 16.1667L12.5092 11.5834C12.6359 11.3334 12.8 11.1667 13 11.1667C13.2 11.1667 13.3642 11.3334 13.4909 11.5834L15.7442 16.1667L20.7725 16.9166C21.1467 16.9166 21.3334 17.0833 21.3334 17.3333Z" fill="#F1C40F"/>
</svg>
