<?xml version="1.0" standalone="no"?>
<!DOCTYPE svg PUBLIC "-//W3C//DTD SVG 20010904//EN"
 "http://www.w3.org/TR/2001/REC-SVG-20010904/DTD/svg10.dtd">
<svg version="1.0" xmlns="http://www.w3.org/2000/svg"
 width="300.000000pt" height="300.000000pt" viewBox="0 0 300.000000 300.000000"
 preserveAspectRatio="xMidYMid meet">
<metadata>
Created by potrace 1.14, written by Peter Selinger 2001-2017
</metadata>
<g transform="translate(0.000000,300.000000) scale(0.100000,-0.100000)"
fill="#000000" stroke="none">
<path d="M1445 2919 c-14 -18 -116 -213 -225 -435 -148 -301 -204 -404 -217
-405 -10 0 -27 -2 -38 -4 -11 -2 -56 -9 -100 -15 -93 -13 -103 -15 -210 -30
-44 -7 -87 -13 -95 -15 -16 -3 -137 -21 -205 -30 -23 -3 -52 -7 -65 -10 -13
-3 -41 -7 -62 -10 -21 -3 -57 -8 -80 -11 -93 -13 -121 -56 -81 -125 16 -26 16
-29 0 -47 -9 -10 -17 -29 -17 -41 0 -48 -9 -38 360 -391 91 -86 195 -186 231
-221 l66 -64 -13 -75 c-8 -41 -16 -86 -18 -100 -2 -14 -9 -56 -16 -95 -6 -38
-13 -79 -15 -90 -1 -11 -5 -36 -9 -55 -3 -19 -8 -48 -11 -65 -3 -16 -9 -55
-15 -85 -5 -30 -12 -73 -16 -95 -3 -22 -9 -60 -14 -84 -4 -24 -4 -56 0 -71 4
-15 5 -45 1 -67 -4 -22 -6 -50 -4 -64 6 -37 42 -69 79 -69 30 0 60 13 242 111
98 53 201 108 297 159 44 24 103 55 130 70 28 15 79 42 114 60 l63 33 62 -33
c95 -52 154 -83 251 -135 145 -77 217 -116 270 -145 239 -131 263 -138 311
-97 25 21 27 30 25 78 -2 30 -3 65 -2 79 2 72 -1 105 -20 210 -11 63 -22 131
-25 150 -2 19 -7 46 -9 60 -3 14 -9 52 -15 85 -5 33 -12 69 -14 80 -2 11 -7
40 -11 65 -9 54 -12 70 -24 135 l-10 50 67 64 c37 35 147 141 246 235 368 352
352 335 342 390 -4 19 -12 37 -19 39 -9 3 -7 13 6 37 9 17 17 42 17 54 0 27
-34 66 -58 67 -9 0 -26 2 -37 4 -11 1 -47 6 -80 9 -33 4 -67 9 -75 11 -8 3
-94 16 -190 30 -96 14 -188 27 -205 30 -172 26 -305 45 -315 45 -6 0 -101 183
-212 408 -110 224 -212 419 -226 435 -35 37 -73 36 -107 -4z"/>
</g>
</svg>
