<svg width="150" height="150" viewBox="0 0 150 150" fill="none" xmlns="http://www.w3.org/2000/svg"><path d="M49 43H115C119.418 43 123 46.5817 123 51V115C123 119.418 119.418 123 115 123H79L49 43Z" fill="#E6E6E6"/><path d="M83 71H106.601C105.688 74.05 103.122 79.0259 99.5278 83.6831C96.7859 80.4631 94.3406 77.3079 93.0986 75H88.375C89.51 78.0146 93.0828 82.6748 96.7485 86.9446C95.2173 88.5815 93.5942 90.1243 91.8418 91.3691C90.9414 92.0098 90.7305 93.2578 91.3691 94.1582C91.7598 94.707 92.375 95 93.002 95C93.4023 95 93.8066 94.8809 94.1582 94.6309C95.9834 93.334 97.7219 91.6941 99.3831 89.9355C103.433 94.4299 107.216 98.2017 108.023 99L111 96.0271C109.025 94.0759 105.58 90.52 102.176 86.7153C106.557 81.2017 109.798 74.9902 110.703 71H117V67H101V63H97V67H83V71Z" fill="#64818E"/><path d="M71 27H35C30.5817 27 27 30.5817 27 35V99C27 103.418 30.5817 107 35 107H99L71 27Z" fill="#5796FF"/><path opacity="0.1" d="M79 123H115C119.418 123 123 119.418 123 115V114C123 118.418 119.418 122 115 122H79V123Z" fill="black"/><path opacity="0.2" d="M71 27H35C30.5818 27 27 30.5815 27 35V99C27 99.8711 27.1741 100.694 27.4316 101.479C27.3416 100.999 27.2825 100.507 27.2825 100V36C27.2825 31.5815 30.864 28 35.2825 28H71.3506L71 27Z" fill="white"/><path opacity="0.1" d="M98.6499 106H35C31.4529 106 28.48 103.676 27.4316 100.479C28.1267 104.189 31.3706 107 35.2825 107H99L98.6499 106Z" fill="black"/><path d="M56 85C46.627 85 39 77.373 39 68C39 58.627 46.627 51 56 51C60.541 51 64.8105 52.7695 68.0215 55.9805L63.7754 60.2227C61.6992 58.1445 58.9375 57 56 57C49.9336 57 45 61.9336 45 68C45 74.0664 49.9336 79 56 79C61.0254 79 65.2754 75.6113 66.584 71H57V65H73V68C73 77.373 65.373 85 56 85Z" fill="#F2F2F2"/><path d="M99 107L79 123L73 107H99Z" fill="#3C4693"/><path d="M76.6001 43V43.0002L99 107L79 123H115C119.418 123 123 119.418 123 115V89.3999L76.6001 43Z" fill="url(#paint0_linear_1_9)"/><path d="M115 43H76.6001L71 27H35C30.5818 27 27 30.5815 27 35V99C27 103.418 30.5818 107 35 107H73L79 123H115C119.418 123 123 119.418 123 115V51C123 46.5815 119.418 43 115 43Z" fill="url(#paint1_linear_1_9)"/><defs><linearGradient id="paint0_linear_1_9" x1="57.2001" y1="62.4" x2="118.057" y2="123.257" gradientUnits="userSpaceOnUse"><stop stop-opacity="0.1"/><stop offset="1" stop-opacity="0"/></linearGradient><linearGradient id="paint1_linear_1_9" x1="19.5712" y1="49.1531" x2="130.429" y2="100.847" gradientUnits="userSpaceOnUse"><stop stop-color="white" stop-opacity="0.2"/><stop offset="1" stop-color="white" stop-opacity="0"/></linearGradient></defs></svg>
